<svg id="Layer_1" enable-background="new 0 0 512 512" height="512" viewBox="0 0 512 512" width="512" xmlns="http://www.w3.org/2000/svg"><g><path d="m309.782 0h-215.559c-19.396 0-35.121 15.724-35.121 35.12v441.758c0 19.397 15.724 35.121 35.121 35.121h215.558c19.397 0 35.121-15.724 35.121-35.121v-441.758c.001-19.396-15.724-35.12-35.12-35.12z" fill="#695d67"/><path d="m92.326 476.879v-441.759c0-19.396 15.724-35.12 35.121-35.12h-33.224c-19.396 0-35.121 15.724-35.121 35.12v441.758c0 19.397 15.724 35.121 35.121 35.121h33.223c-19.396.001-35.12-15.723-35.12-35.12z" fill="#544e55"/><path d="m91.104 91.293v338.513c0 1.72 1.4 3.12 3.12 3.12h215.558c1.72 0 3.12-1.4 3.12-3.12v-338.513z" fill="#dfebfa"/><path d="m131.285 429.806v-338.513h-40.181v338.513c0 1.72 1.4 3.12 3.12 3.12h40.181c-1.72 0-3.12-1.4-3.12-3.12z" fill="#bed8fb"/><circle cx="202.002" cy="471.263" fill="#544e55" r="16.035"/><path d="m309.781 53.255h-180.556v40.098h183.676v-36.979c0-1.72-1.4-3.119-3.12-3.119z" fill="#80b4fb"/><path d="m131.285 53.255h-37.062c-1.72 0-3.12 1.399-3.12 3.119v36.979h40.182z" fill="#ff4756"/><g><path d="m227.87 34.232h-51.736c-4.267 0-7.726-3.459-7.726-7.726s3.459-7.726 7.726-7.726h51.736c4.267 0 7.726 3.459 7.726 7.726s-3.459 7.726-7.726 7.726z" fill="#544e55"/></g><circle cx="312.901" cy="263.14" fill="#ff656f" r="139.997"/><circle cx="312.901" cy="263.14" fill="#ff656f" r="139.997"/><path d="m228.534 263.14c0-67.794 48.189-124.329 112.182-137.229-8.99-1.812-18.291-2.768-27.815-2.768-77.318 0-139.997 62.679-139.997 139.997s62.679 139.997 139.997 139.997c9.524 0 18.825-.955 27.815-2.768-63.993-12.901-112.182-69.435-112.182-137.229z" fill="#ff4756"/><path d="m396.16 245.655h-18c-1.23 0-2.338-.785-2.703-1.96-1.193-3.842-2.729-7.531-4.574-11.034-.574-1.089-.347-2.429.523-3.3l12.731-12.731c2.223-2.223 2.223-5.826 0-8.049l-16.678-16.678c-2.223-2.223-5.826-2.223-8.049 0l-12.731 12.731c-.871.871-2.211 1.097-3.3.523-3.503-1.845-7.192-3.381-11.034-4.574-1.175-.365-1.96-1.473-1.96-2.703v-17.999c0-3.143-2.548-5.691-5.691-5.691h-23.586c-3.143 0-5.691 2.548-5.691 5.691v17.999c0 1.23-.785 2.338-1.96 2.703-3.842 1.193-7.531 2.729-11.034 4.574-1.089.574-2.429.347-3.3-.523l-12.731-12.731c-2.223-2.223-5.826-2.223-8.049 0l-16.678 16.678c-2.223 2.223-2.223 5.826 0 8.049l12.731 12.731c.871.871 1.097 2.211.523 3.3-1.845 3.503-3.381 7.192-4.574 11.034-.365 1.175-1.473 1.96-2.703 1.96h-18c-3.143 0-5.691 2.548-5.691 5.691v23.587c0 3.143 2.548 5.691 5.691 5.691h18c1.23 0 2.338.785 2.703 1.96 1.193 3.842 2.729 7.531 4.574 11.034.574 1.089.347 2.429-.523 3.3l-12.731 12.731c-2.223 2.223-2.223 5.826 0 8.048l16.678 16.678c2.223 2.223 5.826 2.223 8.049 0l12.731-12.731c.871-.871 2.211-1.097 3.3-.523 3.503 1.845 7.192 3.381 11.034 4.574 1.175.365 1.96 1.473 1.96 2.703v17.999c0 3.143 2.548 5.691 5.691 5.691h23.587c3.143 0 5.691-2.548 5.691-5.691v-18c0-1.23.785-2.338 1.96-2.703 3.842-1.193 7.531-2.729 11.034-4.574 1.089-.574 2.429-.347 3.3.523l12.731 12.731c2.223 2.223 5.826 2.223 8.049 0l16.678-16.678c2.223-2.223 2.223-5.826 0-8.049l-12.731-12.731c-.871-.871-1.097-2.211-.523-3.3 1.845-3.503 3.381-7.192 4.574-11.034.365-1.175 1.473-1.96 2.703-1.96h17.999c3.143 0 5.691-2.548 5.691-5.691v-23.586c0-3.142-2.548-5.69-5.691-5.69zm-83.259 50.948c-18.481 0-33.463-14.982-33.463-33.463s14.982-33.463 33.463-33.463 33.463 14.982 33.463 33.463-14.982 33.463-33.463 33.463z" fill="#ffe181"/><g><g><g><path d="m329.113 176.297c-1.044-1.285-2.634-2.107-4.418-2.107h-23.586c-3.143 0-5.692 2.548-5.692 5.691v17.816c9.445-9.402 20.913-16.771 33.696-21.4z" fill="#fec458"/></g><g><path d="m268.219 263.14c0-23.94 9.111-45.752 24.054-62.158-3.415 1.133-6.711 2.523-9.851 4.176-1.089.574-2.429.348-3.3-.523l-12.731-12.731c-2.223-2.223-5.826-2.223-8.048 0l-16.678 16.678c-2.222 2.223-2.222 5.826 0 8.049l12.731 12.731c.871.871 1.097 2.211.523 3.3-1.845 3.503-3.381 7.192-4.574 11.034-.365 1.175-1.473 1.959-2.703 1.959h-17.999c-3.143 0-5.692 2.548-5.692 5.692v23.586c0 3.143 2.548 5.691 5.691 5.691h18c1.23 0 2.338.785 2.703 1.96 1.193 3.842 2.729 7.531 4.574 11.034.574 1.089.347 2.429-.523 3.3l-12.731 12.731c-2.222 2.222-2.222 5.826 0 8.048l16.678 16.678c2.223 2.223 5.827 2.223 8.049 0l12.731-12.731c.871-.871 2.21-1.097 3.3-.523 3.14 1.654 6.436 3.044 9.851 4.176-14.944-16.405-24.055-38.217-24.055-62.157z" fill="#fec458"/></g><g><path d="m295.416 328.582v17.817c0 3.143 2.548 5.691 5.692 5.691h23.587c1.784 0 3.375-.822 4.418-2.107-12.782-4.629-24.251-11.999-33.697-21.401z" fill="#fec458"/></g></g></g></g></svg>