<?xml version="1.0" standalone="no"?>
<!DOCTYPE svg PUBLIC "-//W3C//DTD SVG 20010904//EN"
 "http://www.w3.org/TR/2001/REC-SVG-20010904/DTD/svg10.dtd">
<svg version="1.0" xmlns="http://www.w3.org/2000/svg"
 width="1098.000000pt" height="1280.000000pt" viewBox="0 0 1098.000000 1280.000000"
 preserveAspectRatio="xMidYMid meet">
<metadata>
Created by potrace 1.15, written by Peter Selinger 2001-2017
</metadata>
<g transform="translate(0.000000,1280.000000) scale(0.100000,-0.100000)"
fill="#4caf50" stroke="none">
<path d="M5250 12794 c-325 -29 -553 -74 -821 -165 -670 -225 -1265 -691
-1657 -1296 l-53 -81 -57 -6 c-31 -3 -95 -8 -142 -12 -115 -8 -291 -38 -430
-74 -751 -191 -1398 -698 -1761 -1382 -233 -440 -343 -915 -325 -1403 24 -675
275 -1285 737 -1795 l96 -106 6 -229 c7 -245 21 -368 63 -573 88 -430 282
-856 554 -1217 449 -597 1106 -1012 1837 -1160 210 -42 369 -58 603 -59 270 0
492 25 735 83 44 11 81 18 82 17 2 -1 -52 -65 -119 -142 -153 -175 -688 -711
-914 -916 -218 -196 -666 -587 -807 -702 -59 -48 -105 -91 -102 -96 3 -5 72
-64 153 -132 972 -817 1879 -1250 2806 -1339 287 -27 654 13 964 107 408 123
821 354 1152 646 104 91 485 488 564 587 111 139 174 264 202 403 16 75 17 97
6 160 -20 118 -70 208 -171 308 -110 110 -183 149 -368 199 -63 17 -137 90
-178 175 -27 56 -37 93 -45 167 -23 218 -32 381 -37 675 l-6 311 150 6 c804
35 1528 352 2093 917 499 498 800 1113 897 1833 24 174 23 595 -1 772 -81 597
-302 1115 -672 1580 -116 145 -351 378 -494 489 -311 241 -617 405 -970 518
-85 28 -160 52 -167 54 -6 1 -15 24 -18 51 -4 26 -16 102 -26 168 -177 1084
-937 2027 -1963 2435 -264 105 -493 164 -791 205 -105 15 -511 27 -605 19z
m1402 -5296 c227 -406 416 -738 420 -738 4 0 10 9 13 20 17 54 168 117 345
145 497 77 1619 -47 1638 -181 6 -39 -104 -71 -318 -94 -58 -6 -134 -18 -170
-26 -622 -141 -1066 -911 -1274 -2209 -29 -184 -62 -472 -71 -625 -7 -117 9
-683 25 -872 36 -416 110 -643 259 -796 86 -88 167 -142 361 -236 l150 -74
-57 -73 c-262 -339 -596 -643 -923 -839 -675 -406 -1368 -425 -2255 -59 -341
140 -835 427 -1084 629 l-30 25 103 88 c520 439 1190 1130 1592 1642 167 212
381 525 486 710 319 562 422 1020 317 1415 -168 632 -817 1273 -1900 1878
-143 80 -505 262 -621 312 -43 18 -76 35 -75 37 2 2 28 -2 58 -7 133 -26 364
-41 757 -50 614 -14 803 -36 1136 -132 259 -74 565 -209 815 -361 52 -31 95
-57 96 -57 1 0 -31 147 -72 328 -41 180 -114 507 -164 727 -49 220 -92 409
-95 420 -7 26 42 -60 538 -947z"/>
</g>
</svg>
