<svg id="Layer_1" height="512" viewBox="0 0 128 128" width="512" xmlns="http://www.w3.org/2000/svg" data-name="Layer 1"><path d="m14.638 31.214h98.724v83.262h-98.724z" fill="#ff8f00"/><path d="m113.362 31.214h-98.724l12.821-17.691h73.082z" fill="#ffd295"/><path d="m45.73 52.017h36.541v9.937h-36.541z" fill="#ff6319"/><path d="m70.838 31.214h-12.821l2.564-17.691h7.693z" fill="#fff4f4"/><path d="m70.838 31.214h-12.821v12.821l6.41-3.368 6.411 3.368z" fill="#ffcdbe"/><path d="m85.269 31.214h28.093l-12.821-17.691h-32.267s43.626 5.037 16.995 17.691z" fill="#ffb54c"/><path d="m113.362 114.476v-83.262h-28.093c-.068.032-.129.064-.2.1-27.055 12.725-20.2 39.957-2.8 51.157s13.773 32.01 13.773 32.01z" fill="#ff6319"/><path d="m82.27 52.017h-14.957a25.791 25.791 0 0 0 .321 9.937h14.636z" fill="#ef3801"/><g fill="#630000"><path d="m113.362 102.25a1.75 1.75 0 0 0 -1.75 1.75v8.727h-95.224v-73.268a1.75 1.75 0 0 0 -3.5 0v75.018a1.75 1.75 0 0 0 1.75 1.75h98.725a1.75 1.75 0 0 0 1.75-1.75v-10.477a1.75 1.75 0 0 0 -1.751-1.75z"/><path d="m113.362 93.563a1.75 1.75 0 0 0 -1.75 1.75v.937a1.75 1.75 0 0 0 3.5 0v-.937a1.75 1.75 0 0 0 -1.75-1.75z"/><path d="m115.1 31.179a1.74 1.74 0 0 0 -.322-.992l-12.82-17.687a1.75 1.75 0 0 0 -1.417-.723h-50.208a1.75 1.75 0 0 0 0 3.5h16.426l2.057 14.19h-8.778l1.5-10.312a1.75 1.75 0 0 0 -3.463-.5l-1.575 10.809h-38.433l10.284-14.19h7.149a1.75 1.75 0 0 0 0-3.5h-8.041a1.75 1.75 0 0 0 -1.417.723l-12.821 17.69a1.751 1.751 0 0 0 1.417 2.777h41.629v11.071a1.749 1.749 0 0 0 2.563 1.549l5.6-2.94 5.6 2.94a1.75 1.75 0 0 0 2.564-1.549v-12.821c0-.046-.01-.089-.013-.133s0-.078-.005-.118l-2.281-15.69h29.353l10.284 14.19h-29.682a1.75 1.75 0 1 0 0 3.5h31.362v55.725a1.75 1.75 0 0 0 3.5 0v-57.474c0-.014-.012-.023-.012-.035zm-49.859 7.94a1.751 1.751 0 0 0 -1.628 0l-3.848 2.021v-8.176h9.321v8.175z"/><path d="m42.833 15.273h1a1.75 1.75 0 0 0 0-3.5h-1a1.75 1.75 0 0 0 0 3.5z"/><path d="m45.729 60.2a1.75 1.75 0 0 0 0 3.5h36.542a1.75 1.75 0 0 0 1.75-1.75v-9.932a1.75 1.75 0 0 0 -1.75-1.75h-36.542a1.75 1.75 0 0 0 0 3.5h34.792v6.432z"/></g></svg>